<svg xmlns="http://www.w3.org/2000/svg" viewBox="0 0 149.326 17.309">
  <defs>
    <style>
      .cls-1 {
        fill: #ff4141;
      }
    </style>
  </defs>
  <path id="Path_3436" data-name="Path 3436" class="cls-1" d="M12.745,16.837V1.259h3.147V7.4h6.294V1.259h3.147V16.837H22.186V10.385H15.892v6.451ZM27.694,1.259h9.6v2.99H30.841v2.99h5.35v2.99H31V13.69H37.45v2.99h-9.6C27.694,11.644,27.694,6.451,27.694,1.259Zm15.578,2.99h-.787V8.969H42.8c1.574,0,3.147-.629,3.147-2.36h0c.157-1.574-1.259-2.36-2.675-2.36ZM39.5,16.837V1.259h3.934c3.147,0,5.979,2.046,5.979,5.35h0c0,3.462-2.99,5.35-6.137,5.35H42.8v4.878H39.5ZM54.129,4.248V16.837H50.982V1.259h8.182v2.99ZM62,9.126h0a5.122,5.122,0,0,0,1.574,3.619,5.122,5.122,0,0,0,3.619,1.574h0a5.122,5.122,0,0,0,3.619-1.574,5.122,5.122,0,0,0,1.574-3.619h0a4.985,4.985,0,0,0-1.416-3.619,5.212,5.212,0,0,0-3.776-1.574h0a5.212,5.212,0,0,0-3.776,1.574A5.73,5.73,0,0,0,62,9.126Zm-3.147-.157h0A7.925,7.925,0,0,1,61.524,2.99a8.538,8.538,0,0,1,5.665-2.2h0a8.538,8.538,0,0,1,5.665,2.2,7.925,7.925,0,0,1,2.675,5.979h0a8.32,8.32,0,0,1-2.518,5.979,8.784,8.784,0,0,1-5.822,2.36h0a8.08,8.08,0,0,1-5.822-2.36A7.81,7.81,0,0,1,58.849,8.969ZM80.092,4.248V16.837H76.945V1.259h8.812v2.99ZM92.365,9.284,91.106,6.609,89.847,9.284h2.518Zm1.416,2.99h-5.35l-2.2,4.563H82.767L91.106,0l8.34,16.837H95.984Zm10.228-8.025h-.787V8.969h.315c1.574,0,3.147-.629,3.147-2.36h0a2.4,2.4,0,0,0-2.675-2.36Zm-3.934,12.588V1.1h3.934c3.147,0,5.979,2.046,5.979,5.35h0c0,3.462-2.99,5.35-6.137,5.35h-.472v4.878h-3.3Zm17.309-7.553-1.259-2.675-1.259,2.675h2.518Zm1.259,2.99h-5.35l-2.2,4.563h-3.462L116.125,0l8.34,16.837H121Zm6.294,4.563V1.259h3.147V7.4h6.294V1.259h3.147V16.837h-3.147V10.385h-6.294v6.451Zm17.938,0V4.248h-3.3V1.259h9.756v2.99h-3.3V16.837ZM0,5.193H0V1.574A9.334,9.334,0,0,1,3.619.787h0a7.612,7.612,0,0,1,5.35,2.046,7.919,7.919,0,0,1,2.518,6.137h0a7.919,7.919,0,0,1-2.518,6.137,7.233,7.233,0,0,1-5.35,2.2h0A7.309,7.309,0,0,1,0,16.364V12.745a6.1,6.1,0,0,0,3.619,1.416,4.714,4.714,0,0,0,4.563-3.934H1.731V7.238H8.182A4.721,4.721,0,0,0,3.619,3.776h0A5.73,5.73,0,0,0,0,5.193Z"/>
</svg>
