<svg xmlns="http://www.w3.org/2000/svg" viewBox="0 0 34.494 34.251">
  <defs>
    <style>
      .cls-1 {
        fill: #fff;
      }
    </style>
  </defs>
  <g id="reload" transform="translate(0 20.154) rotate(-56)">
    <g id="Group_2197" data-name="Group 2197" transform="translate(0 0)">
      <path id="Path_2767" data-name="Path 2767" class="cls-1" d="M12.2.934A12.138,12.138,0,0,0,3.735,4.345V.934a.934.934,0,1,0-1.867,0v5.6a.934.934,0,0,0,.639.886l5.6,1.867A.935.935,0,0,0,8.7,7.516L4.562,6.139a10.229,10.229,0,1,1-2.553,5.22.934.934,0,0,0-1.839-.328l0,.017A12.279,12.279,0,0,0,0,13.072,12.155,12.155,0,1,0,12.2.934Z" transform="translate(0 0)"/>
    </g>
  </g>
</svg>
