<svg xmlns="http://www.w3.org/2000/svg" viewBox="0 0 23.7 28.824">
  <defs>
    <style>
      .cls-1 {
        opacity: 0.1;
      }
    </style>
  </defs>
  <g id="Group_3005" data-name="Group 3005" class="cls-1" transform="translate(-92.006 -613.792)">
    <path id="Path_3425" data-name="Path 3425" d="M16.068,2.151c1.875,1.473,2.41,3.347,2.41,7.1,0,4.82-2.812,6.829-2.812,6.829v1.205c0,2.276,2.678,1.875,5.088,3.347S23.7,25.45,23.7,26.253c0,.937-3.08,2.544-11.783,2.544S0,27.324,0,26.253s.4-4.285,2.812-5.624S7.9,19.558,7.9,17.282V15.943S5.088,14.068,5.088,9.248c0-4.954.937-7.364,4.419-8.569A19.937,19.937,0,0,1,16.068.009Z" transform="translate(92.006 613.818)"/>
  </g>
</svg>
